<svg width="40" height="36" viewBox="0 0 40 36" fill="none" xmlns="http://www.w3.org/2000/svg">
<path d="M10 11.052C11.4216 11.052 12.5781 9.89544 12.5781 8.47387C12.5781 7.05223 11.4216 5.89575 10 5.89575C8.57844 5.89575 7.42188 7.05231 7.42188 8.47387C7.42188 9.89544 8.57836 11.052 10 11.052Z" fill="#4472E8"/>
<path d="M10 13.3956C9.48082 13.3956 8.98043 13.3142 8.5102 13.1646L6.17199 14.4886V16.0518H13.8282V14.4886L11.49 13.1646C11.0197 13.3142 10.5193 13.3956 10 13.3956Z" fill="#4472E8"/>
<path d="M40 27.9269V24.0862H0V27.9269H16.25V30.9603L13.8713 33.2296H10.5859V35.5734H29.4141V33.2296H26.1287L23.75 30.9603V27.9269H40Z" fill="#4472E8"/>
<path d="M40 21.7424V0.426758H0V21.7424H40ZM23.6123 4.80191H36.2448V7.14566H23.6123V4.80191ZM23.6123 9.80191H33.7448V12.1457H23.6123V9.80191ZM23.6123 14.8019H36.2448V17.1457H23.6123V14.8019ZM18.7552 4.80191H21.2448V7.14566H18.7552V4.80191ZM18.7552 9.80191H21.2448V12.1457H18.7552V9.80191ZM18.7552 14.8019H21.2448V17.1457H18.7552V14.8019ZM3.8282 13.1223L6.30492 11.7198C5.54219 10.8526 5.07812 9.71668 5.07812 8.47379C5.07812 5.7598 7.28609 3.55191 10 3.55191C12.714 3.55191 14.9219 5.75988 14.9219 8.47379C14.9219 9.71668 14.4578 10.8527 13.6951 11.7199L16.1719 13.1223V18.3956H3.82812V13.1223H3.8282Z" fill="#4472E8"/>
</svg>
